<?xml version="1.0" encoding="UTF-8"?>
<!-- Generator: Adobe Illustrator 18.1.0, SVG Export Plug-In . SVG Version: 6.00 Build 0)  -->
<!DOCTYPE svg PUBLIC "-//W3C//DTD SVG 1.1//EN" "http://www.w3.org/Graphics/SVG/1.1/DTD/svg11.dtd">
<svg version="1.1" id="svg3289" sodipodi:docname="search.svg" inkscape:version="0.48+devel r12264" xmlns:rdf="http://www.w3.org/1999/02/22-rdf-syntax-ns#" xmlns:svg="http://www.w3.org/2000/svg" xmlns:inkscape="http://www.inkscape.org/namespaces/inkscape" xmlns:sodipodi="http://sodipodi.sourceforge.net/DTD/sodipodi-0.dtd" xmlns:cc="http://creativecommons.org/ns#" xmlns:dc="http://purl.org/dc/elements/1.1/" xmlns="http://www.w3.org/2000/svg" xmlns:xlink="http://www.w3.org/1999/xlink" x="0px" y="0px" viewBox="0 0 44 44" enable-background="new 0 0 44 44" xml:space="preserve">
<g id="layer1" transform="translate(0,-962.3622)" inkscape:groupmode="layer" inkscape:label="Layer 1">
	<rect id="rect4443" y="962.4" fill="none" width="44" height="44"/>
	<g id="path2995">
		<path fill="#DD4814" d="M19.1,992.8c-6.3,0-11.4-5.1-11.4-11.4s5.1-11.4,11.4-11.4s11.4,5.1,11.4,11.4    C30.5,987.7,25.4,992.8,19.1,992.8z M19.1,972.3c-5,0-9.1,4.1-9.1,9.1c0,5,4.1,9.1,9.1,9.1s9.1-4.1,9.1-9.1    C28.2,976.4,24.1,972.3,19.1,972.3z"/>
	</g>
	<path id="path3765" inkscape:connector-curvature="0" fill="#DD4814" d="M27.3,988.2l-1.4,1.4l6.8,6.8l1.4-1.4L27.3,988.2z"/>
	<path id="path3767" sodipodi:nodetypes="cscczccc" inkscape:connector-curvature="0" fill="#DD4814" d="M29.8,990.2   c-0.7,0-1.5,0.5-1.8,1.2c-0.3,0.7-0.1,1.6,0.4,2.1l4.5,4.5c1.3,1.4,1.6,1.2,2.7,0c1.2-1.2,1.4-1.4,0-2.7l-4.5-4.5   C30.8,990.4,30.3,990.2,29.8,990.2L29.8,990.2z"/>
</g>
</svg>